<?xml version="1.0" encoding="UTF-8"?>
<!DOCTYPE svg PUBLIC "-//W3C//DTD SVG 1.1//EN" "http://www.w3.org/Graphics/SVG/1.1/DTD/svg11.dtd">
<!-- Creator: CorelDRAW 2019 (64-Bit) -->
<svg xmlns="http://www.w3.org/2000/svg" xml:space="preserve" width="292mm" height="84mm" version="1.1" style="shape-rendering:geometricPrecision; text-rendering:geometricPrecision; image-rendering:optimizeQuality; fill-rule:evenodd; clip-rule:evenodd"
viewBox="0 0 29200 8400"
 xmlns:xlink="http://www.w3.org/1999/xlink"
 xmlns:xodm="http://www.corel.com/coreldraw/odm/2003">
 <defs>
  <style type="text/css">
   <![CDATA[
    .fil0 {fill:#0046AF}
    .fil2 {fill:#029FE3}
    .fil1 {fill:#FF7A00}
    .fil3 {fill:white}
    .fil4 {fill:#029FE3;fill-rule:nonzero}
    .fil5 {fill:#FF7A00;fill-rule:nonzero}
    .fil6 {fill:white;fill-rule:nonzero}
   ]]>
  </style>
 </defs>
 <g id="Layer_x0020_1">
  <metadata id="CorelCorpID_0Corel-Layer"/>
  <g id="_2315619915952">
   <path class="fil0" d="M4414.27 502.38l-751.5 4424.45c-1911.8,801.29 -2742.92,1593.6 -3611.42,3378.95l851.21 -5171.89c465.12,-1682.09 1648.25,-2603.12 3511.71,-2631.51z"/>
   <path class="fil1" d="M4749.28 6263.01c-1513.88,-114.21 -3562.02,635.12 -4387.74,1948.46 541.48,-1481.85 2167.2,-2493.83 3614.45,-2891.64 197.11,-671.14 320,-1804.94 443.3,-2537.22 189.28,-1124.25 57.37,-1449.99 1153.42,-1553.41l-823.43 5033.81z"/>
   <path class="fil2" d="M5538.23 7241.33c-2079.12,-506.83 -4327.4,295.32 -4878.73,968.78 954.1,-1302.18 2911.81,-1624.54 4415.93,-1574.97l600.15 -3581.48c182.9,-1104.96 1863.95,-643.72 1132.27,318.47 272.06,-544.98 -293.12,-762.29 -586.25,-161.87l-683.37 4031.07z"/>
   <path class="fil2" d="M1741.77 3467.4l267.86 -1722.19c333.99,-455.63 924.46,-842.11 2003.54,-911.81l-265.28 1695.4c-481.82,309.99 -1073.62,72.75 -2006.12,938.6z"/>
   <path class="fil3" d="M1356.98 3837.09l267.85 -1722.19c334,-455.63 924.48,-842.1 2003.54,-911.8l-265.27 1695.4c-481.83,309.99 -1073.63,72.74 -2006.12,938.59z"/>
   <path class="fil1" d="M4638.08 1427.06l133.92 -861.08c166.99,-227.82 462.23,-421.06 1001.76,-455.9l-132.63 847.69c-240.92,154.99 -536.82,36.36 -1003.05,469.29z"/>
   <g id="_3202640201584">
    <path class="fil4" d="M8461.14 1999.33l0 1135.49 174.03 0c258.12,0 449.56,-46.41 574.27,-139.94 124.72,-93.54 187.07,-237.12 187.07,-430.71 0,-191.43 -62.35,-332.82 -186.35,-425.62 -123.99,-92.82 -315.4,-139.22 -574.99,-139.22l-174.03 0zm0 2266.65l404.61 0 0 435.04 -1300.83 0 0 -435.04 335 0 0 -2262.3 -335 0 0 -435.06 1070.25 0c437.22,0 767.87,84.83 991.2,253.79 224.05,169.66 335.72,418.38 335.72,746.83 0,328.49 -112.4,576.46 -336.44,744.68 -224.78,167.49 -554.71,251.61 -990.48,251.61l-174.03 0 0 700.45zm2571.2 143.55c0,279.89 -63.09,483.65 -189.99,610.53 -126.89,126.89 -332.81,189.99 -616.33,189.99 -37.7,0 -67.42,0 -87.73,-0.72 -21.03,-0.75 -40.6,-2.92 -58.73,-5.81l0 -546.01c23.93,1.47 47.13,2.92 68.89,3.64 22.47,0.72 42.78,0.72 60.9,0.72 87.74,0 153,-23.19 194.33,-70.32 42.04,-46.41 63.07,-118.2 63.07,-213.92l0 -2373.95 -378.5 0 0 -435.06 1274.72 0 0 435.06 -330.63 0 0 2405.85zm1174.64 26.11l0 265.38 -452.46 0 0 -1061.54 452.46 0c59.45,224.78 151.54,395.91 276.99,512.64 125.44,116.75 281.33,174.76 468.41,174.76 142.84,0 263.2,-44.96 361.1,-135.6 97.88,-90.62 146.46,-202.3 146.46,-333.54 0,-118.91 -42.04,-216.06 -126.16,-290.76 -84.12,-75.4 -226.23,-140.67 -425.63,-197.22l-356.76 -100.06c-286.4,-79.78 -494.5,-188.54 -624.3,-326.31 -129.78,-138.48 -194.32,-317.57 -194.32,-538.75 0,-255.21 89.9,-468.4 269.75,-639.52 179.81,-171.85 404.58,-257.41 673.59,-257.41 145.03,0 278.44,22.49 401.7,68.15 123.27,44.96 229.14,110.95 316.88,197.95l0 -205.19 435.06 0 0 931.03 -435.06 0c-49.3,-185.62 -126.9,-324.12 -231.31,-415.49 -105.14,-91.37 -237.84,-137.05 -399.53,-137.05 -136.31,0 -247.25,36.98 -332.82,111.67 -85.56,73.96 -128.34,168.95 -128.34,283.52 0,97.89 27.56,175.46 81.93,232.75 54.39,57.29 150.11,105.86 287.87,145.75l379.96 108.76c349.48,101.52 596.01,225.5 738.14,372.7 142.11,146.46 213.18,342.96 213.18,588.77 0,293.66 -89.2,528.61 -266.84,705.51 -177.65,176.94 -413.32,265.39 -707.7,265.39 -167.49,0 -320.48,-27.55 -458.98,-82.66 -138.5,-55.12 -259.58,-136.32 -363.27,-243.63z"/>
    <path class="fil5" d="M14286.54 4701.02l0 -435.04 335.01 0 0 -2262.3 -335.01 0 0 -435.06 1279.08 0 0 439.42 -382.86 0 0 2257.94 783.1 0 0 -491.64 509.03 0 0 926.68 -2188.35 0zm2505.22 -2353.64l0 -535.13 669.98 0 0 535.13 -669.98 0zm669.98 1931.64l291.49 0 0 422 -1105.05 0 0 -422 308.9 0 0 -1179 -304.54 0 0 -422.01 809.2 0 0 1601.01zm1248.61 -587.32c0,174.01 55.83,318.31 166.77,432.88 111.67,114.55 249.42,171.84 415.48,171.84 166.77,0 305.98,-57.29 416.92,-171.12 110.95,-113.84 166.78,-258.15 166.78,-433.6 0,-175.47 -55.83,-321.22 -167.5,-436.52 -112.38,-115.29 -250.88,-172.57 -416.2,-172.57 -166.06,0 -303.81,57.28 -415.48,172.57 -110.94,115.3 -166.77,261.05 -166.77,436.52zm-770.05 1009.32l0 -422 282.78 0 0 -2288.39 -282.78 0 0 -422.01 783.11 0 0 1326.91c92.07,-90.62 191.41,-158.06 297.27,-203.01 106.59,-44.24 220.45,-66.7 342.26,-66.7 293.66,0 538.02,102.22 733.78,305.99 195.06,203.73 292.94,455.34 292.94,755.53 0,308.9 -95.7,562.67 -287.86,762.07 -192.14,199.41 -437.95,299.47 -738.86,299.47 -123.28,0 -239.29,-23.2 -349.5,-68.88 -109.48,-45.69 -206.66,-111.66 -290.03,-196.51l0 217.53 -783.11 0zm3472.49 -1730.8l25.38 -8.7c28.27,-102.23 74.67,-180.54 138.49,-235.64 63.8,-55.12 140.67,-82.67 231.29,-82.67 103.69,0 189.26,34.08 256.69,102.25 67.43,67.42 100.79,153.71 100.79,258.85 0,104.41 -33.36,190.69 -100.07,256.68 -66.7,66.7 -153.72,100.05 -261.03,100.05 -81.21,0 -152.27,-23.92 -213.89,-71.04 -61.65,-47.15 -110.95,-116.75 -147.94,-207.39l-29.71 13.05 0 1183.36 282.77 0 0 422 -1070.24 0 0 -422 282.79 0 0 -1179 -282.79 0 0 -422.01 787.47 0 0 292.21zm3122.97 1308.8l282.79 0 0 422 -787.45 0 0 -217.53c-84.85,86.29 -181.28,152.27 -290.04,197.23 -108.04,45.68 -222.6,68.16 -344.41,68.16 -300.19,0 -546,-100.06 -738.89,-299.47 -192.13,-199.4 -288.58,-453.17 -288.58,-762.07 0,-300.19 97.89,-551.8 292.94,-755.53 195.04,-203.77 440.12,-305.99 734.53,-305.99 120.36,0 232.74,22.46 337.15,66.7 105.14,44.95 203.76,112.39 297.3,203.01l0 -217.52 787.45 0 0 422.01 -282.79 0 0 1179zm-1653.22 -587.32c0,178.37 54.39,323.39 162.43,435.78 108.04,112.4 247.98,168.94 419.1,168.94 167.5,0 305.99,-57.29 417.66,-171.12 110.93,-113.84 166.77,-258.15 166.77,-433.6 0,-175.47 -56.57,-321.22 -168.22,-436.52 -111.67,-115.29 -250.15,-172.57 -416.21,-172.57 -171.12,0 -311.06,56.56 -419.1,169.68 -108.04,113.12 -162.43,259.58 -162.43,439.41zm2980.87 -721.48l25.38 -8.7c28.27,-102.23 74.68,-180.54 138.5,-235.64 63.79,-55.12 140.66,-82.67 231.28,-82.67 103.7,0 189.27,34.08 256.69,102.25 67.43,67.42 100.79,153.71 100.79,258.85 0,104.41 -33.36,190.69 -100.07,256.68 -66.7,66.7 -153.71,100.05 -261.02,100.05 -81.21,0 -152.27,-23.92 -213.9,-71.04 -61.65,-47.15 -110.95,-116.75 -147.93,-207.39l-29.72 13.05 0 1183.36 282.78 0 0 422 -1070.24 0 0 -422 282.79 0 0 -1179 -282.79 0 0 -422.01 787.46 0 0 292.21zm2353.64 2635.71l-1136.21 0 0 -421.98 319.03 0 265.39 -535.13 -675.78 -1548.8 -252.32 0 0 -422.01 1031.8 0 0 422.01 -269.74 0 435.78 1040.51 451.74 -1040.51 -261.04 0 0 -422.01 1012.95 0 0 422.01 -248.7 0 -991.21 2083.93 318.31 0 0 421.98z"/>
   </g>
   <polygon class="fil2" points="7563.1,5664.79 28212.23,5664.79 28212.23,7070.02 7563.1,7070.02 "/>
   <path class="fil6" d="M8673.26 6266.42l0 -1.9c0,-136.21 -96.05,-230.52 -254.84,-230.52l-271.97 0 0 666.78 146.44 0 0 -200.03 111.26 0c149.3,0 269.11,-80.01 269.11,-234.33zm-148.34 2.87c0,57.14 -42.79,100.96 -116.02,100.96l-116.01 0 0 -203.84 113.15 0c73.23,0 118.88,35.24 118.88,100.97l0 1.91zm763.58 431.49l0 -130.49 -361.34 0 0 -140.03 313.8 0 0 -130.5 -313.8 0 0 -135.25 356.59 0 0 -130.51 -502.09 0 0 666.78 506.84 0zm705.57 0l-162.61 -238.13c84.63,-31.44 142.64,-99.07 142.64,-206.7l0 -1.91c0,-137.17 -94.14,-220.04 -251.03,-220.04l-304.3 0 0 666.78 146.45 0 0 -213.37 115.06 0 142.63 213.37 171.16 0zm-168.31 -437.22c0,56.21 -40.89,94.31 -112.2,94.31l-148.34 0 0 -191.46 145.48 0c71.32,0 115.06,32.38 115.06,95.25l0 1.9zm807.34 2.86l0 -1.9c0,-136.21 -96.05,-230.52 -254.85,-230.52l-271.97 0 0 666.78 146.45 0 0 -200.03 111.25 0c149.3,0 269.12,-80.01 269.12,-234.33zm-148.35 2.87c0,57.14 -42.79,100.96 -116.02,100.96l-116 0 0 -203.84 113.16 0c73.23,0 118.86,35.24 118.86,100.97l0 1.91zm826.36 140.97l0 -376.26 -146.45 0 0 381.98c0,105.73 -54.21,160.02 -143.6,160.02 -89.38,0 -143.58,-56.21 -143.58,-164.79l0 -377.21 -146.45 0 0 381.02c0,196.23 109.36,296.23 288.14,296.23 178.76,0 291.94,-99.05 291.94,-300.99zm630.45 93.35l0 -1.9c0,-116.22 -76.08,-164.79 -211.11,-200.04 -115.06,-29.53 -143.58,-43.82 -143.58,-87.63l0 -1.91c0,-32.39 29.46,-58.1 85.58,-58.1 56.1,0 114.1,24.76 173.06,65.72l76.07 -110.49c-67.51,-54.3 -150.24,-84.78 -247.24,-84.78 -135.99,0 -232.97,80.02 -232.97,200.99l0 1.91c0,132.4 86.54,169.55 220.61,203.83 111.26,28.59 134.09,47.64 134.09,84.78l0 1.9c0,39.06 -36.14,62.87 -96.05,62.87 -76.07,0 -138.83,-31.43 -198.73,-80.96l-86.54 103.82c79.87,71.45 181.62,106.68 282.42,106.68 143.59,0 244.39,-74.29 244.39,-206.69zm617.15 -334.34l0 -135.27 -551.54 0 0 135.27 202.54 0 0 531.51 146.44 0 0 -531.51 202.56 0zm675.13 531.51l-285.26 -671.54 -135.03 0 -285.28 671.54 149.29 0 60.86 -149.55 281.46 0 60.87 149.55 153.09 0zm-266.25 -279.09l-176.86 0 88.42 -216.22 88.44 216.22zm974.68 279.09l-283.36 -383.87 271.01 -282.91 -176.88 0 -270.05 291.48 0 -291.48 -146.44 0 0 666.78 146.44 0 0 -203.85 77.02 -80 206.35 283.85 175.91 0zm717.95 0l-285.27 -671.54 -135.03 0 -285.27 671.54 149.29 0 60.86 -149.55 281.46 0 60.87 149.55 153.09 0zm-266.25 -279.09l-176.86 0 88.42 -216.22 88.44 216.22zm998.46 279.09l-285.27 -671.54 -135.03 0 -285.28 671.54 149.29 0 60.87 -149.55 281.46 0 60.86 149.55 153.1 0zm-266.26 -279.09l-176.86 0 88.44 -216.22 88.42 216.22zm960.44 279.09l0 -666.78 -144.54 0 0 410.55 -311.91 -410.55 -135.02 0 0 666.78 144.54 0 0 -423.88 322.35 423.88 124.58 0zm926.2 -197.17l0 -1.9c0,-116.22 -76.07,-164.79 -211.1,-200.04 -115.07,-29.53 -143.59,-43.82 -143.59,-87.63l0 -1.91c0,-32.39 29.47,-58.1 85.58,-58.1 56.1,0 114.11,24.76 173.07,65.72l76.07 -110.49c-67.51,-54.3 -150.25,-84.78 -247.24,-84.78 -135.99,0 -232.97,80.02 -232.97,200.99l0 1.91c0,132.4 86.54,169.55 220.61,203.83 111.26,28.59 134.09,47.64 134.09,84.78l0 1.9c0,39.06 -36.14,62.87 -96.06,62.87 -76.06,0 -138.82,-31.43 -198.73,-80.96l-86.53 103.82c79.86,71.45 181.62,106.68 282.42,106.68 143.58,0 244.38,-74.29 244.38,-206.69zm793.06 197.17l0 -666.78 -157.84 0 -174.97 281.96 -174.98 -281.96 -157.85 0 0 666.78 143.6 0 0 -432.44 185.42 281.94 3.81 0 187.32 -284.81 0 435.31 145.49 0zm765.48 0l-283.37 -383.87 271.02 -282.91 -176.88 0 -270.05 291.48 0 -291.48 -146.44 0 0 666.78 146.44 0 0 -203.85 77.02 -80 206.35 283.85 175.91 0zm965.2 0l0 -666.78 -144.53 0 0 410.55 -311.91 -410.55 -135.02 0 0 666.78 144.53 0 0 -423.88 322.36 423.88 124.57 0zm658.99 -544.85c52.3,0 89.39,30.49 89.39,86.68 0,55.25 -32.33,91.45 -115.06,160.03l-221.57 181.94 0 116.2 492.59 0 0 -126.69 -290.03 0 108.39 -83.82c117.93,-91.44 174.98,-147.64 174.98,-259.09 0,-124.78 -87.49,-206.7 -229.18,-206.7 -118.85,0 -182.56,48.58 -248.18,138.13l102.68 82.85c49.47,-60.95 84.65,-89.53 135.99,-89.53zm1253.33 -121.93l-166.42 0 -161.66 267.67 -158.8 -267.67 -171.16 0 255.79 403.89 0 262.89 146.45 0 0 -265.76 255.8 -401.02zm712.22 333.39l0 -1.9c0,-189.56 -147.39,-342.91 -352.79,-342.91 -205.4,0 -354.7,155.26 -354.7,344.81l0 1.91c0,189.55 147.39,342.92 352.79,342.92 205.4,0 354.7,-155.27 354.7,-344.83zm-153.09 1.91c0,114.31 -81.79,207.65 -199.7,207.65 -117.92,0 -201.6,-95.25 -201.6,-209.56l0 -1.9c0,-114.3 81.79,-207.66 199.69,-207.66 117.92,0 201.61,95.26 201.61,209.56l0 1.91zm888.13 237.19l0 -289.58 -289.07 0 0 126.69 147.39 0 0 95.25c-37.08,26.68 -84.63,40 -137.88,40 -117.91,0 -201.59,-89.53 -201.59,-211.46l0 -1.9c0,-113.35 84.63,-207.66 191.13,-207.66 77.02,0 122.66,24.78 174.02,67.64l92.24 -111.45c-69.42,-59.06 -141.68,-91.44 -261.5,-91.44 -201.6,0 -348.99,155.26 -348.99,344.81l0 1.91c0,197.18 142.64,342.92 349.93,342.92 121.72,0 215.86,-47.64 284.32,-105.73zm701.79 -572.49l-166.41 0 -161.66 267.67 -158.8 -267.67 -171.16 0 255.79 403.89 0 262.89 146.44 0 0 -265.76 255.8 -401.02zm635.2 666.78l-285.27 -671.54 -135.02 0 -285.29 671.54 149.3 0 60.86 -149.55 281.47 0 60.85 149.55 153.1 0zm-266.25 -279.09l-176.87 0 88.44 -216.22 88.43 216.22zm974.69 279.09l-283.37 -383.87 271.02 -282.91 -176.88 0 -270.05 291.48 0 -291.48 -146.45 0 0 666.78 146.45 0 0 -203.85 77.01 -80 206.36 283.85 175.91 0zm717.94 0l-285.27 -671.54 -135.02 0 -285.29 671.54 149.3 0 60.85 -149.55 281.48 0 60.85 149.55 153.1 0zm-266.25 -279.09l-176.87 0 88.44 -216.22 88.43 216.22zm944.26 279.09l-162.61 -238.13c84.64,-31.44 142.65,-99.07 142.65,-206.7l0 -1.91c0,-137.17 -94.14,-220.04 -251.05,-220.04l-304.29 0 0 666.78 146.44 0 0 -213.37 115.06 0 142.64 213.37 171.16 0zm-168.31 -437.22c0,56.21 -40.89,94.31 -112.21,94.31l-148.34 0 0 -191.46 145.5 0c71.31,0 115.05,32.38 115.05,95.25l0 1.9zm784.52 -94.29l0 -135.27 -551.53 0 0 135.27 202.53 0 0 531.51 146.45 0 0 -531.51 202.55 0zm675.14 531.51l-285.27 -671.54 -135.03 0 -285.28 671.54 149.29 0 60.87 -149.55 281.46 0 60.86 149.55 153.1 0zm-266.26 -279.09l-176.86 0 88.44 -216.22 88.42 216.22z"/>
  </g>
 </g>
</svg>
